<svg width="960" height="960" viewBox="0 0 960 960" fill="none" xmlns="http://www.w3.org/2000/svg">
<g id="apple-settings">
<path id="app" d="M610.56 48C696.96 48 740.16 48 787.2 62.4C838.08 80.64 878.4 120.96 896.64 171.84C912 218.88 912 263.04 912 349.44V610.56C912 696.96 912 740.16 897.6 787.2C879.36 838.08 839.04 878.4 788.16 896.64C740.16 912 696.96 912 610.56 912H349.44C263.04 912 219.84 912 172.8 897.6C120.96 878.4 81.6 839.04 62.4 787.2C48 741.12 48 697.92 48 610.56V349.44C48 263.04 48 219.84 62.4 172.8C81.6 121.92 120.96 81.6 172.8 63.36C218.88 48 262.08 48 349.44 48H610.56Z" fill="url(#paint0_linear)"/>
<path id="Oval 3" d="M480 854.4C686.775 854.4 854.4 686.775 854.4 480C854.4 273.225 686.775 105.6 480 105.6C273.224 105.6 105.6 273.225 105.6 480C105.6 686.775 273.224 854.4 480 854.4Z" fill="#2E2E30"/>
<g id="gear2">
<g id="Group">
<path id="path 3 14" d="M505.211 280.722L514.718 282.058L525.114 256.375C528.217 248.086 529.985 249.304 529.867 257.043L528.978 284.062C531.83 284.463 535.499 285.948 538.351 286.349L551.465 262.017C555.386 254.812 557.287 255.08 556.084 263.636L551.393 290.12C554.111 291.472 557.78 292.957 560.632 293.358L576.331 271.328C581.202 264.257 582.97 265.475 580.817 273.898L573.273 299.981C575.992 301.333 579.661 302.818 582.245 305.12L599.712 284.308C605.4 278.322 607.168 279.54 604.198 286.878L593.802 312.561C596.387 314.863 599.105 316.215 601.69 318.517L621.741 300.007C628.381 294.154 630.148 295.372 626.094 303.527L613.114 326.908C615.698 329.21 618.283 331.512 619.917 333.681L642.419 318.424C648.925 313.522 650.693 314.74 645.821 321.811L628.905 345.608C631.489 347.91 633.124 350.079 635.575 353.331L659.578 341.194C666.9 337.376 668.668 338.594 662.846 345.531L644.562 365.258C646.196 367.427 648.648 370.68 650.148 373.799L675.785 363.83C683.925 361.096 684.608 363.131 678.103 368.033L657.234 385.458L661.736 394.816L687.923 387.833C695.929 386.049 696.612 388.084 690.24 392.036L667.738 407.293C669.238 410.412 669.788 413.398 671.289 416.517L698.025 412.519C705.898 411.686 707.532 413.855 699.259 417.539L675.256 429.677C675.806 432.662 677.306 435.782 677.722 439.718L703.924 439.523C712.614 439.774 712.347 441.676 705.158 444.543L680.605 453.695C681.155 456.681 681.571 460.617 682.121 463.603L708.873 466.393C717.429 467.595 717.162 469.497 709.156 471.28L683.102 477.313C683.652 480.298 683.118 484.101 682.717 486.953L707.984 493.412C716.406 495.565 716.139 497.466 707.316 498.165L680.713 501.213L679.243 511.67L704.243 520.03C712.532 523.134 712.265 525.036 703.575 524.784L677.373 524.979C676.838 528.782 675.487 531.5 674.952 535.303L698.467 547.332C705.672 551.253 705.404 553.154 696.848 551.952L671.181 548.345C669.829 551.063 669.295 554.866 667.943 557.584L690.106 572.332C697.177 577.203 695.959 578.971 688.488 576.952L663.221 570.492C661.869 573.211 660.384 576.88 659.033 579.598L678.894 596.931C684.88 602.619 684.613 604.521 676.324 601.417L652.409 592.239C650.107 594.824 648.622 598.493 646.32 601.078L664.012 620.045C669.999 625.733 668.647 628.452 660.492 624.397L636.561 608.431L629.655 616.186L645.179 636.787C650.081 643.292 648.863 645.06 641.792 640.188L620.58 625.574C618.278 628.159 615.976 630.743 612.857 632.244L626.212 654.479C630.03 661.802 628.812 663.569 621.875 657.747L602.014 640.414C598.761 642.866 596.593 644.5 593.473 646L603.71 669.736C607.394 678.009 605.359 678.693 599.506 672.053L581.814 653.086L572.456 657.588L579.573 682.824C582.307 690.964 580.272 691.647 575.37 685.142L560.93 663.724C557.811 665.224 554.692 666.725 550.622 668.091L554.753 693.877C556.536 701.883 554.502 702.567 549.733 695.111L537.462 672.059C534.476 672.608 530.406 673.975 527.421 674.525L528.7 699.91C529.399 708.733 526.547 708.332 523.68 701.143L514.127 679.443C511.141 679.993 507.205 680.409 504.219 680.959L502.513 706.894C502.262 715.583 499.41 715.182 497.627 707.176L490.509 681.94C487.524 682.49 483.721 681.956 479.785 682.372L474.276 707.772C473.074 716.328 470.222 715.927 469.389 708.055L467.293 681.586C463.49 681.051 460.638 680.65 456.702 681.067L448.341 706.066C445.238 714.355 443.336 714.088 443.588 705.398L443.393 679.196C439.59 678.662 436.738 678.261 433.069 676.776L421.99 700.424C419.02 707.762 416.168 707.361 417.37 698.805L420.027 673.004C416.358 671.519 413.506 671.118 410.788 669.767L396.04 691.93C392.119 699.134 389.267 698.733 391.42 690.311L396.929 664.911C394.21 663.559 390.541 662.074 387.823 660.723L371.307 681.668C366.436 688.739 363.717 687.387 366.821 679.098L375.182 654.099C372.464 652.747 369.879 650.445 366.21 648.96L347.109 667.603C341.421 673.59 339.653 672.372 342.623 665.034L354.653 641.519C352.068 639.217 349.483 636.915 346.765 635.563L326.03 652.038C319.525 656.94 317.757 655.723 322.629 648.652L337.377 626.489C334.792 624.186 332.207 621.884 330.707 618.765L308.739 630.219C301.282 634.988 299.648 632.819 305.337 626.833L321.853 605.888C319.268 603.585 317.767 600.466 316.133 598.298L292.264 609.485C284.941 613.303 283.307 611.134 288.996 605.148L308.096 586.504C306.596 583.385 304.962 581.217 303.461 578.098L278.092 586.165C269.952 588.899 269.268 586.864 275.774 581.962L297.459 565.621C295.959 562.502 294.458 559.382 293.908 556.397L267.989 561.479C259.983 563.262 259.299 561.227 266.756 556.458L289.941 543.237C288.441 540.117 287.891 537.132 287.341 534.146L258.97 535.976C250.147 536.675 249.464 534.64 257.737 530.955L282.423 520.853C281.874 517.867 281.457 513.931 280.908 510.945L253.888 510.056C245.199 509.804 245.466 507.903 253.606 505.169L278.975 497.102C278.426 494.116 278.96 490.313 278.41 487.328L251.925 482.636C243.369 481.434 243.77 478.582 251.643 477.749L278.513 472.801C278.914 469.949 278.498 466.012 278.898 463.16L252.814 455.617C244.392 453.464 244.793 450.612 253.482 450.864L280.769 449.851L282.105 440.345L257.372 430.083C250.034 427.113 250.435 424.261 258.991 425.463L285.877 427.303C286.277 424.451 287.763 420.782 289.114 418.063L265.733 405.083C258.529 401.162 258.796 399.261 267.352 400.463L293.837 405.155C295.188 402.437 296.673 398.768 298.025 396.049L275.995 380.35C268.924 375.479 270.142 373.711 278.564 375.864L304.515 384.359C305.866 381.64 308.168 379.056 309.52 376.337L289.792 358.054C283.806 352.365 285.024 350.597 292.362 353.568L316.961 364.78C319.263 362.196 320.614 359.477 322.916 356.892L305.491 336.024C299.638 329.385 301.807 327.751 308.877 332.622L332.125 346.553C334.427 343.969 336.596 342.334 338.898 339.75L323.775 316.297C319.006 308.841 321.041 308.157 327.161 312.895L349.057 329.544C351.359 326.96 354.478 325.459 356.78 322.874L345.044 296.019C341.226 288.697 343.394 287.063 349.381 292.751L368.974 311.985C371.143 310.351 374.262 308.851 377.381 307.35L368.363 281.847C365.629 273.707 367.664 273.024 372.566 279.529L389.858 301.348C392.977 299.848 396.096 298.347 398.265 296.713L392.366 269.709C390.583 261.703 392.618 261.02 397.52 267.525L411.692 290.845C414.812 289.344 417.797 288.795 420.783 288.245L417.869 260.691C417.17 251.868 419.205 251.184 422.89 259.458L433.943 284.278L442.9 282.628L443.789 255.609C444.04 246.919 445.942 247.187 448.676 255.326L456.61 281.647C459.595 281.097 463.531 280.681 466.383 281.081L470.258 253.512C471.46 244.956 473.362 245.224 475.145 253.23L481.044 280.233C483.896 280.634 487.832 280.218 490.684 280.619L497.277 254.401C499.43 245.979 501.332 246.246 502.031 255.069L505.211 280.722V280.722ZM457.026 644.274C547.338 656.966 630.827 594.053 643.519 503.741C656.212 413.428 593.299 329.94 502.986 317.247C412.674 304.555 328.369 366.384 315.676 456.696C302.983 547.008 366.713 631.581 457.026 644.274V644.274Z" fill="black"/>
</g>
<g id="Group_2">
<path id="path 3 4" d="M505.211 280.722L514.718 282.058L525.114 256.375C528.217 248.086 529.985 249.304 529.867 257.043L528.978 284.062C531.83 284.463 535.499 285.948 538.351 286.349L551.465 262.017C555.386 254.812 557.287 255.08 556.084 263.636L551.393 290.12C554.111 291.472 557.78 292.957 560.632 293.358L576.331 271.328C581.202 264.257 582.97 265.475 580.817 273.898L573.273 299.981C575.992 301.333 579.661 302.818 582.245 305.12L599.712 284.308C605.4 278.322 607.168 279.54 604.198 286.878L593.802 312.561C596.387 314.863 599.105 316.215 601.69 318.517L621.741 300.007C628.381 294.154 630.148 295.372 626.094 303.527L613.114 326.908C615.698 329.21 618.283 331.512 619.917 333.681L642.419 318.424C648.925 313.522 650.693 314.74 645.821 321.811L628.905 345.608C631.489 347.91 633.124 350.079 635.575 353.331L659.578 341.194C666.9 337.376 668.668 338.594 662.846 345.531L644.562 365.258C646.196 367.427 648.648 370.68 650.148 373.799L675.785 363.83C683.925 361.096 684.608 363.131 678.103 368.033L657.234 385.458L661.736 394.816L687.923 387.833C695.929 386.049 696.612 388.084 690.24 392.036L667.738 407.293C669.238 410.412 669.788 413.398 671.289 416.517L698.025 412.519C705.898 411.686 707.532 413.855 699.259 417.539L675.256 429.677C675.806 432.662 677.306 435.782 677.722 439.718L703.924 439.523C712.614 439.774 712.347 441.676 705.158 444.543L680.605 453.695C681.155 456.681 681.571 460.617 682.121 463.603L708.873 466.393C717.429 467.595 717.162 469.497 709.156 471.28L683.102 477.313C683.652 480.298 683.118 484.101 682.717 486.953L707.984 493.412C716.406 495.565 716.139 497.466 707.316 498.165L680.713 501.213L679.243 511.67L704.243 520.03C712.532 523.134 712.265 525.036 703.575 524.784L677.373 524.979C676.838 528.782 675.487 531.5 674.952 535.303L698.467 547.332C705.672 551.253 705.404 553.154 696.848 551.952L671.181 548.345C669.829 551.063 669.295 554.866 667.943 557.584L690.106 572.332C697.177 577.203 695.959 578.971 688.488 576.952L663.221 570.492C661.869 573.211 660.384 576.88 659.033 579.598L678.894 596.931C684.88 602.619 684.613 604.521 676.324 601.417L652.409 592.239C650.107 594.824 648.622 598.493 646.32 601.078L664.012 620.045C669.999 625.733 668.647 628.452 660.492 624.397L636.561 608.431L629.655 616.186L645.179 636.787C650.081 643.292 648.863 645.06 641.792 640.188L620.58 625.574C618.278 628.159 615.976 630.743 612.857 632.244L626.212 654.479C630.03 661.802 628.812 663.569 621.875 657.747L602.014 640.414C598.761 642.866 596.593 644.5 593.473 646L603.71 669.736C607.394 678.009 605.359 678.693 599.506 672.053L581.814 653.086L572.456 657.588L579.573 682.824C582.307 690.964 580.272 691.647 575.37 685.142L560.93 663.724C557.811 665.224 554.692 666.725 550.622 668.091L554.753 693.877C556.536 701.883 554.502 702.567 549.733 695.111L537.462 672.059C534.476 672.608 530.406 673.975 527.421 674.525L528.7 699.91C529.399 708.733 526.547 708.332 523.68 701.143L514.127 679.443C511.141 679.993 507.205 680.409 504.219 680.959L502.513 706.894C502.262 715.583 499.41 715.182 497.627 707.176L490.509 681.94C487.524 682.49 483.721 681.956 479.785 682.372L474.276 707.772C473.074 716.328 470.222 715.927 469.389 708.055L467.293 681.586C463.49 681.051 460.638 680.65 456.702 681.067L448.341 706.066C445.238 714.355 443.336 714.088 443.588 705.398L443.393 679.196C439.59 678.662 436.738 678.261 433.069 676.776L421.99 700.424C419.02 707.762 416.168 707.361 417.37 698.805L420.027 673.004C416.358 671.519 413.506 671.118 410.788 669.767L396.04 691.93C392.119 699.134 389.267 698.733 391.42 690.311L396.929 664.911C394.21 663.559 390.541 662.074 387.823 660.723L371.307 681.668C366.436 688.739 363.717 687.387 366.821 679.098L375.182 654.099C372.464 652.747 369.879 650.445 366.21 648.96L347.109 667.603C341.421 673.59 339.653 672.372 342.623 665.034L354.653 641.519C352.068 639.217 349.483 636.915 346.765 635.563L326.03 652.038C319.525 656.94 317.757 655.723 322.629 648.652L337.377 626.489C334.792 624.186 332.207 621.884 330.707 618.765L308.739 630.219C301.282 634.988 299.648 632.819 305.337 626.833L321.853 605.888C319.268 603.585 317.767 600.466 316.133 598.298L292.264 609.485C284.941 613.303 283.307 611.134 288.996 605.148L308.096 586.504C306.596 583.385 304.962 581.217 303.461 578.098L278.092 586.165C269.952 588.899 269.268 586.864 275.774 581.962L297.459 565.621C295.959 562.502 294.458 559.382 293.908 556.397L267.989 561.479C259.983 563.262 259.299 561.227 266.756 556.458L289.941 543.237C288.441 540.117 287.891 537.132 287.341 534.146L258.97 535.976C250.147 536.675 249.464 534.64 257.737 530.955L282.423 520.853C281.874 517.867 281.457 513.931 280.908 510.945L253.888 510.056C245.199 509.804 245.466 507.903 253.606 505.169L278.975 497.102C278.426 494.116 278.96 490.313 278.41 487.328L251.925 482.636C243.369 481.434 243.77 478.582 251.643 477.749L278.513 472.801C278.914 469.949 278.498 466.012 278.898 463.16L252.814 455.617C244.392 453.464 244.793 450.612 253.482 450.864L280.769 449.851L282.105 440.345L257.372 430.083C250.034 427.113 250.435 424.261 258.991 425.463L285.877 427.303C286.277 424.451 287.763 420.782 289.114 418.063L265.733 405.083C258.529 401.162 258.796 399.261 267.352 400.463L293.837 405.155C295.188 402.437 296.673 398.768 298.025 396.049L275.995 380.35C268.924 375.479 270.142 373.711 278.564 375.864L304.515 384.359C305.866 381.64 308.168 379.056 309.52 376.337L289.792 358.054C283.806 352.365 285.024 350.597 292.362 353.568L316.961 364.78C319.263 362.196 320.614 359.477 322.916 356.892L305.491 336.024C299.638 329.385 301.807 327.751 308.877 332.622L332.125 346.553C334.427 343.969 336.596 342.334 338.898 339.75L323.775 316.297C319.006 308.841 321.041 308.157 327.161 312.895L349.057 329.544C351.359 326.96 354.478 325.459 356.78 322.874L345.044 296.019C341.226 288.697 343.394 287.063 349.381 292.751L368.974 311.985C371.143 310.351 374.262 308.851 377.381 307.35L368.363 281.847C365.629 273.707 367.664 273.024 372.566 279.529L389.858 301.348C392.977 299.848 396.096 298.347 398.265 296.713L392.366 269.709C390.583 261.703 392.618 261.02 397.52 267.525L411.692 290.845C414.812 289.344 417.797 288.795 420.783 288.245L417.869 260.691C417.17 251.868 419.205 251.184 422.89 259.458L433.943 284.278L442.9 282.628L443.789 255.609C444.04 246.919 445.942 247.187 448.676 255.326L456.61 281.647C459.595 281.097 463.531 280.681 466.383 281.081L470.258 253.512C471.46 244.956 473.362 245.224 475.145 253.23L481.044 280.233C483.896 280.634 487.832 280.218 490.684 280.619L497.277 254.401C499.43 245.979 501.332 246.246 502.031 255.069L505.211 280.722V280.722ZM457.026 644.274C547.338 656.966 630.827 594.053 643.519 503.741C656.212 413.428 593.299 329.94 502.986 317.247C412.674 304.555 328.369 366.384 315.676 456.696C302.983 547.008 366.713 631.581 457.026 644.274V644.274Z" fill="#7F7F7F"/>
</g>
<g id="Group_3">
<path id="path 3 15" d="M505.211 280.722L514.718 282.058L525.114 256.375C528.217 248.086 529.985 249.304 529.867 257.043L528.978 284.062C531.83 284.463 535.499 285.948 538.351 286.349L551.465 262.017C555.386 254.812 557.287 255.08 556.084 263.636L551.393 290.12C554.111 291.472 557.78 292.957 560.632 293.358L576.331 271.328C581.202 264.257 582.97 265.475 580.817 273.898L573.273 299.981C575.992 301.333 579.661 302.818 582.245 305.12L599.712 284.308C605.4 278.322 607.168 279.54 604.198 286.878L593.802 312.561C596.387 314.863 599.105 316.215 601.69 318.517L621.741 300.007C628.381 294.154 630.148 295.372 626.094 303.527L613.114 326.908C615.698 329.21 618.283 331.512 619.917 333.681L642.419 318.424C648.925 313.522 650.693 314.74 645.821 321.811L628.905 345.608C631.489 347.91 633.124 350.079 635.575 353.331L659.578 341.194C666.9 337.376 668.668 338.594 662.846 345.531L644.562 365.258C646.196 367.427 648.648 370.68 650.148 373.799L675.785 363.83C683.925 361.096 684.608 363.131 678.103 368.033L657.234 385.458L661.736 394.816L687.923 387.833C695.929 386.049 696.612 388.084 690.24 392.036L667.738 407.293C669.238 410.412 669.788 413.398 671.289 416.517L698.025 412.519C705.898 411.686 707.532 413.855 699.259 417.539L675.256 429.677C675.806 432.662 677.306 435.782 677.722 439.718L703.924 439.523C712.614 439.774 712.347 441.676 705.158 444.543L680.605 453.695C681.155 456.681 681.571 460.617 682.121 463.603L708.873 466.393C717.429 467.595 717.162 469.497 709.156 471.28L683.102 477.313C683.652 480.298 683.118 484.101 682.717 486.953L707.984 493.412C716.406 495.565 716.139 497.466 707.316 498.165L680.713 501.213L679.243 511.67L704.243 520.03C712.532 523.134 712.265 525.036 703.575 524.784L677.373 524.979C676.838 528.782 675.487 531.5 674.952 535.303L698.467 547.332C705.672 551.253 705.404 553.154 696.848 551.952L671.181 548.345C669.829 551.063 669.295 554.866 667.943 557.584L690.106 572.332C697.177 577.203 695.959 578.971 688.488 576.952L663.221 570.492C661.869 573.211 660.384 576.88 659.033 579.598L678.894 596.931C684.88 602.619 684.613 604.521 676.324 601.417L652.409 592.239C650.107 594.824 648.622 598.493 646.32 601.078L664.012 620.045C669.999 625.733 668.647 628.452 660.492 624.397L636.561 608.431L629.655 616.186L645.179 636.787C650.081 643.292 648.863 645.06 641.792 640.188L620.58 625.574C618.278 628.159 615.976 630.743 612.857 632.244L626.212 654.479C630.03 661.802 628.812 663.569 621.875 657.747L602.014 640.414C598.761 642.866 596.593 644.5 593.473 646L603.71 669.736C607.394 678.009 605.359 678.693 599.506 672.053L581.814 653.086L572.456 657.588L579.573 682.824C582.307 690.964 580.272 691.647 575.37 685.142L560.93 663.724C557.811 665.224 554.692 666.725 550.622 668.091L554.753 693.877C556.536 701.883 554.502 702.567 549.733 695.111L537.462 672.059C534.476 672.608 530.406 673.975 527.421 674.525L528.7 699.91C529.399 708.733 526.547 708.332 523.68 701.143L514.127 679.443C511.141 679.993 507.205 680.409 504.219 680.959L502.513 706.894C502.262 715.583 499.41 715.182 497.627 707.176L490.509 681.94C487.524 682.49 483.721 681.956 479.785 682.372L474.276 707.772C473.074 716.328 470.222 715.927 469.389 708.055L467.293 681.586C463.49 681.051 460.638 680.65 456.702 681.067L448.341 706.066C445.238 714.355 443.336 714.088 443.588 705.398L443.393 679.196C439.59 678.662 436.738 678.261 433.069 676.776L421.99 700.424C419.02 707.762 416.168 707.361 417.37 698.805L420.027 673.004C416.358 671.519 413.506 671.118 410.788 669.767L396.04 691.93C392.119 699.134 389.267 698.733 391.42 690.311L396.929 664.911C394.21 663.559 390.541 662.074 387.823 660.723L371.307 681.668C366.436 688.739 363.717 687.387 366.821 679.098L375.182 654.099C372.464 652.747 369.879 650.445 366.21 648.96L347.109 667.603C341.421 673.59 339.653 672.372 342.623 665.034L354.653 641.519C352.068 639.217 349.483 636.915 346.765 635.563L326.03 652.038C319.525 656.94 317.757 655.723 322.629 648.652L337.377 626.489C334.792 624.186 332.207 621.884 330.707 618.765L308.739 630.219C301.282 634.988 299.648 632.819 305.337 626.833L321.853 605.888C319.268 603.585 317.767 600.466 316.133 598.298L292.264 609.485C284.941 613.303 283.307 611.134 288.996 605.148L308.096 586.504C306.596 583.385 304.962 581.217 303.461 578.098L278.092 586.165C269.952 588.899 269.268 586.864 275.774 581.962L297.459 565.621C295.959 562.502 294.458 559.382 293.908 556.397L267.989 561.479C259.983 563.262 259.299 561.227 266.756 556.458L289.941 543.237C288.441 540.117 287.891 537.132 287.341 534.146L258.97 535.976C250.147 536.675 249.464 534.64 257.737 530.955L282.423 520.853C281.874 517.867 281.457 513.931 280.908 510.945L253.888 510.056C245.199 509.804 245.466 507.903 253.606 505.169L278.975 497.102C278.426 494.116 278.96 490.313 278.41 487.328L251.925 482.636C243.369 481.434 243.77 478.582 251.643 477.749L278.513 472.801C278.914 469.949 278.498 466.012 278.898 463.16L252.814 455.617C244.392 453.464 244.793 450.612 253.482 450.864L280.769 449.851L282.105 440.345L257.372 430.083C250.034 427.113 250.435 424.261 258.991 425.463L285.877 427.303C286.277 424.451 287.763 420.782 289.114 418.063L265.733 405.083C258.529 401.162 258.796 399.261 267.352 400.463L293.837 405.155C295.188 402.437 296.673 398.768 298.025 396.049L275.995 380.35C268.924 375.479 270.142 373.711 278.564 375.864L304.515 384.359C305.866 381.64 308.168 379.056 309.52 376.337L289.792 358.054C283.806 352.365 285.024 350.597 292.362 353.568L316.961 364.78C319.263 362.196 320.614 359.477 322.916 356.892L305.491 336.024C299.638 329.385 301.807 327.751 308.877 332.622L332.125 346.553C334.427 343.969 336.596 342.334 338.898 339.75L323.775 316.297C319.006 308.841 321.041 308.157 327.161 312.895L349.057 329.544C351.359 326.96 354.478 325.459 356.78 322.874L345.044 296.019C341.226 288.697 343.394 287.063 349.381 292.751L368.974 311.985C371.143 310.351 374.262 308.851 377.381 307.35L368.363 281.847C365.629 273.707 367.664 273.024 372.566 279.529L389.858 301.348C392.977 299.848 396.096 298.347 398.265 296.713L392.366 269.709C390.583 261.703 392.618 261.02 397.52 267.525L411.692 290.845C414.812 289.344 417.797 288.795 420.783 288.245L417.869 260.691C417.17 251.868 419.205 251.184 422.89 259.458L433.943 284.278L442.9 282.628L443.789 255.609C444.04 246.919 445.942 247.187 448.676 255.326L456.61 281.647C459.595 281.097 463.531 280.681 466.383 281.081L470.258 253.512C471.46 244.956 473.362 245.224 475.145 253.23L481.044 280.233C483.896 280.634 487.832 280.218 490.684 280.619L497.277 254.401C499.43 245.979 501.332 246.246 502.031 255.069L505.211 280.722V280.722ZM457.026 644.274C547.338 656.966 630.827 594.053 643.519 503.741C656.212 413.428 593.299 329.94 502.986 317.247C412.674 304.555 328.369 366.384 315.676 456.696C302.983 547.008 366.713 631.581 457.026 644.274V644.274Z" fill="#777777"/>
</g>
</g>
<g id="gear1">
<path id="Vector" d="M816.956 497.282C829.436 495.362 829.436 492.482 816.956 489.602L781.436 482.882V480.002V465.602L815.996 456.962C828.476 454.082 827.516 450.242 815.036 449.282L779.516 446.402C778.556 440.642 778.556 435.842 777.596 430.082L811.196 417.602C822.716 412.802 822.716 409.922 810.236 409.922L774.716 410.882C773.756 405.122 771.836 400.322 770.876 394.562L802.556 378.242C814.076 372.482 812.156 369.602 800.636 371.522L765.116 377.282C763.196 372.482 761.276 366.722 759.356 361.922L789.116 341.762C799.676 334.082 797.756 331.202 786.236 335.042L751.676 344.642C748.796 339.842 746.876 335.042 743.996 330.242L770.876 306.242C780.476 297.602 778.556 294.722 767.036 299.522L734.396 312.962C731.516 308.162 727.676 303.362 724.796 299.522L748.796 272.642C757.436 263.042 755.516 261.122 743.996 266.882L710.396 284.162C706.556 280.322 703.676 275.522 699.836 271.682L720.956 241.922C728.636 231.362 725.756 229.442 715.196 236.162L686.396 257.282C682.556 253.442 678.716 249.602 673.916 246.722L691.196 215.042C696.956 203.522 694.076 201.602 685.436 210.242L659.516 234.242C654.716 231.362 650.876 227.522 646.076 224.642L659.516 191.042C664.316 179.522 661.436 177.602 652.796 187.202L629.756 214.082C624.956 211.202 620.156 209.282 615.356 206.402L623.996 171.842C626.876 159.362 623.996 158.402 617.276 168.962L598.076 198.722C593.276 196.802 587.516 194.882 582.716 192.962L587.516 157.442C589.436 144.962 586.556 144.002 580.796 155.522L564.476 187.202C559.676 185.282 553.916 184.322 548.156 183.362L549.116 147.842C549.116 135.362 546.236 134.402 541.436 146.882L528.956 180.482C523.196 179.522 518.396 178.562 512.636 178.562L506.876 144.002C505.916 131.522 502.076 131.522 499.196 143.042L490.556 177.602H474.236L466.556 142.082C463.676 129.602 460.796 129.602 458.876 142.082L455.036 177.602C449.276 177.602 444.476 178.562 438.716 179.522L426.236 145.922C422.396 134.402 418.556 134.402 418.556 146.882L419.516 182.402C413.756 183.362 408.956 184.322 403.196 186.242L387.836 153.602C382.076 142.082 379.196 143.042 380.156 155.522L383.996 191.042C379.196 192.962 373.436 194.882 368.636 196.802L349.436 167.042C342.716 156.482 339.836 157.442 342.716 169.922L351.356 204.482C346.556 206.402 341.756 209.282 336.956 212.162L313.916 184.322C306.236 174.722 303.356 176.642 307.196 188.162L319.676 221.762C314.876 224.642 310.076 227.522 306.236 230.402L280.316 205.442C270.716 196.802 268.796 198.722 274.556 210.242L290.876 241.922C287.036 245.762 282.236 248.642 278.396 252.482L249.596 231.362C239.036 223.682 237.116 226.562 243.836 236.162L263.996 265.922C260.156 269.762 256.316 273.602 252.476 278.402L221.756 260.162C211.196 253.442 208.316 256.322 216.956 265.922L239.996 292.802C237.116 296.642 233.276 301.442 230.396 306.242L197.756 291.842C186.236 287.042 184.316 289.922 193.916 298.562L220.796 322.562C217.916 327.362 215.036 332.162 213.116 336.962L178.556 327.362C166.076 323.522 165.116 327.362 175.676 334.082L204.476 354.242C202.556 359.042 199.676 363.842 197.756 369.602L162.236 363.842C149.756 361.922 148.796 364.802 159.356 370.562L191.036 387.842C189.116 392.642 188.156 398.402 186.236 403.202L150.716 402.242C138.236 402.242 137.276 405.122 148.796 409.922L182.396 422.402C181.436 428.162 180.476 432.962 179.516 438.722L143.996 443.522C131.516 444.482 131.516 447.362 143.036 451.202L177.596 460.802C177.596 466.562 176.636 471.362 176.636 477.122L141.116 483.842C128.636 485.762 128.636 489.602 141.116 491.522L176.636 496.322C176.636 502.082 177.596 506.882 177.596 512.642L143.036 523.202C130.556 527.042 131.516 529.922 143.996 530.882L179.516 531.842C180.476 537.602 181.436 542.402 182.396 548.162L149.756 563.522C138.236 569.282 139.196 572.162 151.676 571.202L187.196 567.362C189.116 573.122 190.076 577.922 191.996 583.682L161.276 601.922C150.716 608.642 151.676 611.522 164.156 608.642L199.676 600.962C201.596 605.762 204.476 610.562 206.396 616.322L178.556 638.402C168.956 646.082 169.916 648.962 182.396 645.122L215.996 633.602L224.636 648.002L201.596 671.042C192.956 679.682 194.876 682.562 205.436 676.802L238.076 661.442C240.956 666.242 244.796 670.082 248.636 673.922L226.556 701.762C218.876 711.362 220.796 714.242 231.356 707.522L261.116 688.322L272.636 699.842L254.396 730.562C247.676 741.122 250.556 743.042 260.156 735.362L287.996 712.322C291.836 716.162 296.636 719.042 301.436 722.882L286.076 755.522C280.316 767.042 283.196 768.962 291.836 759.362L316.796 733.442L331.196 742.082L319.676 775.682C315.836 787.202 318.716 789.122 326.396 779.522L348.476 750.722C353.276 752.642 358.076 755.522 363.836 757.442L357.116 792.962C354.236 805.442 358.076 806.402 363.836 795.842L382.076 765.122C386.876 767.042 392.636 768.962 397.436 769.922L393.596 806.402C392.636 818.882 395.516 819.842 401.276 808.322L415.676 775.682C421.436 776.642 426.236 777.602 431.996 778.562L433.916 814.082C434.876 826.562 437.756 826.562 441.596 815.042L451.196 780.482C456.956 781.442 462.716 781.442 467.516 781.442L473.276 816.962C475.196 829.442 478.076 829.442 480.956 816.962L487.676 781.442C493.436 781.442 498.236 781.442 503.996 780.482L513.596 815.042C517.436 827.522 520.316 826.562 521.276 814.082L523.196 778.562C528.956 777.602 533.756 776.642 539.516 775.682L552.956 808.322C557.756 819.842 560.636 818.882 560.636 806.402L556.796 772.802C562.556 771.842 567.356 769.922 572.156 768.002L590.396 798.722C597.116 809.282 599.996 808.322 597.116 795.842L590.396 760.322C595.196 758.402 600.956 756.482 605.756 753.602L626.876 782.402C634.556 792.962 637.436 791.042 633.596 778.562L623.996 745.922L638.396 737.282L662.396 763.202C671.036 772.802 673.916 770.882 669.116 759.362L654.716 726.722C659.516 723.842 663.356 720.002 668.156 717.122L695.996 740.162C705.596 747.842 708.476 745.922 701.756 735.362L683.516 704.642L695.036 693.122L724.796 712.322C735.356 719.042 737.276 717.122 729.596 706.562L707.516 678.722C711.356 674.882 714.236 670.082 718.076 666.242L750.716 682.562C762.236 688.322 764.156 685.442 755.516 676.802L729.596 650.882C732.476 646.082 735.356 642.242 738.236 637.442L771.836 648.962C783.356 652.802 785.276 649.922 775.676 642.242L747.836 620.162C750.716 615.362 752.636 610.562 755.516 604.802L790.076 612.482C802.556 615.362 803.516 612.482 792.956 605.762L762.236 586.562C764.156 581.762 766.076 576.002 767.996 571.202L803.516 575.042C815.996 576.002 816.956 573.122 805.436 567.362L772.796 552.002C773.756 546.242 775.676 541.442 776.636 535.682L812.156 534.722C824.636 534.722 825.596 530.882 813.116 527.042L779.516 518.402C780.476 512.642 780.476 507.842 781.436 502.082L816.956 497.282ZM354.236 666.242C344.636 683.522 319.676 685.442 304.316 676.802C293.756 671.042 268.796 647.042 245.756 609.602C224.636 571.202 213.116 528.002 213.116 480.962C213.116 402.242 246.716 332.162 301.436 283.202C318.716 273.602 342.716 275.522 352.316 291.842L447.356 455.042C455.036 468.482 455.036 494.402 446.396 507.842L354.236 666.242ZM685.436 648.962C654.716 685.442 615.356 714.242 569.276 730.562C509.756 747.842 431.996 748.802 402.236 732.482C382.076 722.882 374.396 701.762 383.996 684.482L478.076 521.282C485.756 507.842 505.916 496.322 521.276 496.322H704.636C724.796 496.322 738.236 513.602 738.236 530.882C738.236 546.242 725.756 599.042 685.436 648.962ZM465.596 480.002C465.596 472.322 472.316 465.602 479.996 465.602C487.676 465.602 494.396 472.322 494.396 480.002C494.396 487.682 487.676 494.402 479.996 494.402C472.316 494.402 465.596 487.682 465.596 480.002ZM708.476 462.722H516.476C500.156 461.762 480.956 448.322 473.276 433.922L382.076 275.522C372.476 258.242 383.036 239.042 398.396 230.402C408.956 224.642 442.556 214.082 486.716 214.082C612.476 216.962 716.156 308.162 740.156 427.202C743.036 447.362 725.756 462.722 708.476 462.722Z" fill="url(#paint1_linear)"/>
</g>
</g>
<defs>
<linearGradient id="paint0_linear" x1="479.866" y1="48.2688" x2="479.866" y2="911.981" gradientUnits="userSpaceOnUse">
<stop stop-color="#D3D7DD"/>
<stop offset="1" stop-color="#888C90"/>
</linearGradient>
<linearGradient id="paint1_linear" x1="479.807" y1="133.886" x2="479.807" y2="827.076" gradientUnits="userSpaceOnUse">
<stop stop-color="#D9DADB"/>
<stop offset="1" stop-color="#7D8082"/>
</linearGradient>
</defs>
</svg>
